<svg width="2000" height="372" viewBox="0 0 2000 372" fill="none" xmlns="http://www.w3.org/2000/svg">
<g clip-path="url(#clip0_149_705)">
<path d="M462.316 254.671C434.369 254.671 407.462 253.63 381.596 251.546L387.394 218.066C409.841 220.447 429.314 222.084 445.815 222.977C462.316 223.87 477.924 224.316 492.641 224.316L495.986 209.362L434.889 204.898C424.929 204.154 416.827 202.368 410.584 199.541C404.489 196.714 400.252 192.696 397.874 187.488C395.644 182.28 395.421 175.733 397.205 167.846C399.137 159.365 402.631 152.743 407.685 147.982C412.739 143.22 420.098 139.798 429.76 137.714C439.571 135.482 452.876 134.366 469.674 134.366C480.377 134.366 492.864 134.664 507.135 135.259C521.554 135.706 534.413 136.301 545.711 137.045L539.913 170.302C526.534 168.814 510.108 167.549 490.634 166.507C471.309 165.466 454.511 164.945 440.24 164.945L436.896 180.122L495.986 184.586C506.689 185.479 515.237 187.339 521.629 190.166C528.021 192.845 532.332 196.788 534.562 201.996C536.94 207.204 537.238 213.826 535.454 221.861C533.521 230.194 530.102 236.741 525.196 241.502C520.291 246.115 512.932 249.463 503.121 251.546C493.31 253.63 479.708 254.671 462.316 254.671Z" fill="#0C0E12"/>
<path d="M596.545 254.671C581.68 254.671 571.274 251.398 565.328 244.85C559.382 238.154 557.97 227.962 561.091 214.272L578.707 137.938H621.296L602.566 219.629C610.742 219.629 623.006 217.843 639.358 214.272C655.859 210.701 671.096 206.386 685.069 201.326L689.975 233.021C671.988 239.27 655.041 244.478 639.135 248.645C623.229 252.662 609.032 254.671 596.545 254.671ZM676.373 251.1L671.021 233.244L693.097 137.938H735.686L709.82 251.1H676.373Z" fill="#0C0E12"/>
<path d="M735.292 300.204L772.753 137.938H805.309L811.775 153.785L778.105 300.204H735.292ZM764.503 251.1L771.861 218.29H875.325L886.92 168.293C869.973 168.293 852.209 169.93 833.627 173.203C815.046 176.328 797.058 180.494 779.666 185.702L775.652 157.802C795.423 151.255 815.343 145.75 835.411 141.286C855.48 136.673 872.055 134.366 885.136 134.366C897.92 134.366 907.806 136.598 914.793 141.062C921.78 145.378 926.091 152.074 927.726 161.15C929.51 170.227 928.692 181.908 925.273 196.193C922.003 209.734 917.766 220.447 912.563 228.334C907.36 236.071 900.299 241.8 891.38 245.52C882.46 249.24 870.642 251.1 855.926 251.1H764.503Z" fill="#0C0E12"/>
<path d="M1015.35 254.671C995.13 254.671 979.596 252.737 968.744 248.868C958.041 244.85 951.054 238.526 947.784 229.896C944.513 221.266 944.588 209.585 948.007 194.854C951.872 178.486 957.074 166.061 963.615 157.579C970.305 149.098 979.744 143.146 991.934 139.723C1004.12 136.152 1021.07 134.366 1042.77 134.366C1064.18 134.366 1080.61 136.45 1092.05 140.616C1103.65 144.634 1111.23 151.255 1114.8 160.481C1118.36 169.558 1118.36 181.834 1114.8 197.309C1114.05 200.285 1113.09 203.038 1111.9 205.567H985.245L990.373 183.247H1075.78L1079.57 166.507C1072.73 166.358 1065.89 166.21 1059.05 166.061C1052.21 165.912 1045.38 165.838 1038.54 165.838C1032.15 165.838 1025.6 165.912 1018.91 166.061C1012.23 166.21 1005.39 166.358 998.4 166.507L985.245 223.646C1009.77 223.646 1029.92 223.274 1045.67 222.53C1061.58 221.638 1079.34 220.224 1098.97 218.29L1089.82 251.1C1080.76 251.993 1068.34 252.811 1052.59 253.555C1036.98 254.299 1024.56 254.671 1015.35 254.671Z" fill="#0C0E12"/>
<path d="M1122.14 251.1L1129.28 219.852H1166.51L1178.11 169.186H1140.87L1148.23 137.938H1214.68L1220.7 160.481L1218.92 177.221L1209.1 219.852H1277.11L1269.98 251.1H1122.14ZM1211.11 160.927C1227.46 152.446 1243.07 145.898 1257.94 141.286C1272.95 136.673 1285.81 134.366 1296.51 134.366C1302.16 134.366 1306.18 134.515 1308.55 134.813L1300.3 169.855C1298.97 169.706 1295.4 169.632 1289.6 169.632C1281.42 169.632 1273.47 170.599 1265.74 172.534C1258.01 174.319 1250.43 176.774 1243 179.899C1235.56 182.875 1225.6 187.339 1213.12 193.291L1211.11 160.927Z" fill="#0C0E12"/>
<path d="M1305.23 251.1L1342.25 90.396H1385.06L1355.4 218.29H1433.67L1445.27 168.293C1428.32 168.293 1410.63 169.93 1392.2 173.203C1373.76 176.328 1355.78 180.494 1338.24 185.702L1334 157.802C1354.07 151.255 1374.06 145.75 1393.98 141.286C1414.05 136.673 1430.62 134.366 1443.71 134.366C1456.34 134.366 1466.08 136.598 1472.92 141.062C1479.9 145.378 1484.21 152.074 1485.85 161.15C1487.63 170.227 1486.89 181.908 1483.62 196.193C1480.5 209.734 1476.34 220.447 1471.13 228.334C1465.93 236.071 1458.79 241.8 1449.73 245.52C1440.81 249.24 1429.06 251.1 1414.49 251.1H1305.23Z" fill="#0C0E12"/>
<path d="M1581.7 254.671C1559.85 254.671 1542.9 252.662 1530.86 248.645C1518.82 244.627 1510.87 238.08 1507 229.003C1503.28 219.778 1503.28 207.353 1507 191.729C1510.57 176.402 1515.77 164.722 1522.61 156.686C1529.45 148.502 1539.18 142.774 1551.82 139.5C1564.46 136.078 1581.85 134.366 1604 134.366C1625.85 134.366 1642.72 136.375 1654.62 140.393C1666.66 144.41 1674.61 150.958 1678.47 160.034C1682.34 169.111 1682.41 181.462 1678.7 197.086C1675.13 212.561 1669.85 224.39 1662.87 232.574C1656.03 240.61 1646.29 246.338 1633.65 249.761C1621.17 253.034 1603.85 254.671 1581.7 254.671ZM1586.83 220.298C1594.71 220.298 1602.51 220.224 1610.24 220.075C1617.97 219.926 1624.14 219.703 1628.75 219.406L1640.34 169.409C1637.67 169.26 1632.02 169.111 1623.4 168.962C1614.78 168.814 1606.53 168.739 1598.65 168.739C1590.77 168.739 1582.52 168.814 1573.9 168.962C1565.27 169.111 1559.55 169.26 1556.73 169.409L1545.13 219.406C1549.74 219.703 1555.83 219.926 1563.42 220.075C1571.15 220.224 1578.95 220.298 1586.83 220.298Z" fill="#0C0E12"/>
<path d="M1749.15 254.671C1737.26 254.671 1727.67 252.886 1720.39 249.314C1713.25 245.743 1708.42 240.535 1705.9 233.69C1703.37 226.846 1703.22 218.513 1705.45 208.692L1732.88 90.396H1775.69L1745.14 222.307C1768.18 222.158 1794.72 220.15 1824.74 216.281L1815.38 250.654C1805.72 251.844 1794.64 252.811 1782.16 253.555C1769.67 254.299 1758.67 254.671 1749.15 254.671Z" fill="#0C0E12"/>
<path d="M1898.1 254.671C1886.2 254.671 1876.84 253.258 1870 250.43C1863.16 247.603 1858.63 243.214 1856.4 237.262C1854.17 231.31 1854.17 223.646 1856.4 214.272L1880.93 108.029H1923.52L1897.43 222.307C1911.85 222.158 1926.64 221.489 1941.8 220.298C1957.11 218.959 1971.61 217.322 1985.28 215.388L1975.92 249.761C1967.15 251.1 1954.44 252.216 1937.79 253.109C1921.29 254.15 1908.06 254.671 1898.1 254.671ZM1824.74 169.186L1831.87 137.938H2000L1992.64 169.186H1824.74Z" fill="#0C0E12"/>
<path d="M306.6 155H178.85V0L0 217H127.75V372L306.6 155Z" fill="#0C0E12"/>
</g>
<defs>
<clipPath id="clip0_149_705">
<rect width="2000" height="372" fill="white"/>
</clipPath>
</defs>
</svg>
